<?xml version="1.0" encoding="UTF-8"?>
<svg xmlns="http://www.w3.org/2000/svg" xmlns:xlink="http://www.w3.org/1999/xlink" width="41.23pt" height="41.23pt" viewBox="0 0 41.23 41.23" version="1.1">
<g id="surface1">
<path style=" stroke:none;fill-rule:evenodd;fill:rgb(75%,75%,75%);fill-opacity:1;" d="M 13.808594 31.40625 L 13.808594 23.4375 C 13.808594 22.886719 14.253906 22.441406 14.804688 22.441406 L 22.777344 22.441406 C 23.324219 22.441406 23.773438 22.886719 23.773438 23.4375 L 23.773438 31.40625 C 23.773438 31.957031 23.324219 32.402344 22.777344 32.402344 L 14.804688 32.402344 C 14.253906 32.402344 13.808594 31.957031 13.808594 31.40625 Z M 18.789062 26.425781 L 18.789062 18.457031 C 18.789062 17.90625 19.238281 17.457031 19.785156 17.457031 L 27.757812 17.457031 C 28.308594 17.457031 28.753906 17.90625 28.753906 18.457031 L 28.753906 26.425781 C 28.753906 26.976562 28.308594 27.421875 27.757812 27.421875 L 19.785156 27.421875 C 19.238281 27.421875 18.789062 26.976562 18.789062 26.425781 Z M 14.644531 40.164062 L 0.699219 16.011719 C 0.421875 15.535156 0.585938 14.921875 1.066406 14.648438 L 25.21875 0.703125 C 25.695312 0.425781 26.308594 0.589844 26.582031 1.066406 L 40.527344 25.222656 C 40.804688 25.699219 40.640625 26.3125 40.164062 26.585938 L 16.007812 40.53125 C 15.53125 40.808594 14.921875 40.644531 14.644531 40.164062 Z M 14.644531 40.164062 "/>
<path style="fill:none;stroke-width:0.3985;stroke-linecap:butt;stroke-linejoin:miter;stroke:rgb(0%,0%,0%);stroke-opacity:1;stroke-miterlimit:10;" d="M -0.00040625 0.99675 L -0.00040625 8.9655 C -0.00040625 9.516281 0.444906 9.961594 0.995688 9.961594 L 8.968344 9.961594 C 9.515219 9.961594 9.964438 9.516281 9.964438 8.9655 L 9.964438 0.99675 C 9.964438 0.445969 9.515219 0.00065625 8.968344 0.00065625 L 0.995688 0.00065625 C 0.444906 0.00065625 -0.00040625 0.445969 -0.00040625 0.99675 Z M 4.980063 5.977219 L 4.980063 13.945969 C 4.980063 14.49675 5.429281 14.945969 5.976156 14.945969 L 13.948813 14.945969 C 14.499594 14.945969 14.944906 14.49675 14.944906 13.945969 L 14.944906 5.977219 C 14.944906 5.426438 14.499594 4.981125 13.948813 4.981125 L 5.976156 4.981125 C 5.429281 4.981125 4.980063 5.426438 4.980063 5.977219 Z M 0.835531 -7.761062 L -13.109781 16.391281 C -13.387125 16.867844 -13.223062 17.481125 -12.742594 17.754563 L 11.40975 31.699875 C 11.886313 31.977219 12.499594 31.813156 12.773031 31.336594 L 26.718344 7.180344 C 26.995688 6.703781 26.831625 6.0905 26.355063 5.817063 L 2.198813 -8.12825 C 1.72225 -8.405594 1.112875 -8.241531 0.835531 -7.761062 Z M 0.835531 -7.761062 " transform="matrix(1,0,0,-1,13.809,32.403)"/>
</g>
</svg>
