<?xml version="1.0" standalone="no"?>
<!DOCTYPE svg PUBLIC "-//W3C//DTD SVG 20010904//EN"
 "http://www.w3.org/TR/2001/REC-SVG-20010904/DTD/svg10.dtd">
<svg version="1.0" xmlns="http://www.w3.org/2000/svg"
 width="458.000000pt" height="458.000000pt" viewBox="0 0 458.000000 458.000000"
 preserveAspectRatio="xMidYMid meet">
<metadata>
Created by potrace 1.11, written by Peter Selinger 2001-2013
</metadata>
<g transform="translate(0.000000,458.000000) scale(0.100000,-0.100000)"
fill="#000000" stroke="none">
<path d="M2775 4514 c-27 -14 -75 -41 -105 -59 -50 -30 -386 -224 -485 -280
-22 -13 -166 -96 -320 -185 -154 -89 -300 -174 -325 -188 -25 -13 -83 -47
-130 -75 -47 -27 -100 -58 -118 -69 -18 -10 -93 -53 -165 -95 -73 -42 -170
-98 -216 -124 -46 -27 -85 -49 -87 -49 -2 0 -43 -24 -91 -53 -48 -29 -137 -81
-198 -116 -60 -34 -117 -66 -125 -72 -8 -5 -82 -48 -165 -95 -173 -99 -170
-97 -189 -135 -28 -55 -14 -106 64 -240 40 -68 82 -140 93 -159 10 -19 42 -73
70 -120 27 -47 64 -110 80 -140 17 -30 48 -84 69 -119 21 -34 38 -65 38 -67 0
-2 18 -33 40 -69 22 -36 40 -70 40 -75 0 -6 4 -10 8 -10 4 0 13 -12 19 -28 7
-15 24 -47 39 -72 57 -95 63 -106 82 -140 10 -19 135 -235 277 -480 142 -245
269 -465 283 -490 14 -25 82 -142 150 -260 122 -210 140 -242 182 -316 38 -66
78 -94 138 -94 33 0 58 13 407 215 154 90 296 172 315 183 19 11 62 35 95 54
33 19 161 93 285 165 124 71 286 165 360 208 74 43 209 121 300 173 91 52 208
120 260 150 91 53 245 142 320 184 19 11 105 61 190 110 85 50 174 101 198
115 51 29 73 61 79 113 6 46 -9 77 -142 305 -48 83 -95 164 -105 180 -32 56
-208 360 -228 395 -12 19 -27 46 -35 60 -34 61 -73 129 -153 267 -48 81 -100
173 -117 203 -16 30 -33 60 -37 65 -4 6 -17 26 -28 45 -10 19 -70 123 -132
230 -62 107 -123 213 -135 235 -249 437 -467 803 -487 818 -43 32 -105 32
-163 1z m347 -1910 c15 -8 33 -24 39 -36 16 -30 16 -918 -1 -957 -20 -49 -40
-53 -269 -54 -116 0 -215 3 -219 7 -4 4 -7 107 -7 230 0 246 -2 256 -68 296
-29 18 -52 20 -259 20 l-228 0 1 218 c0 119 4 225 7 235 4 10 20 26 35 36 26
17 61 18 485 18 368 0 462 -2 484 -13z m-1061 -544 c1 -3 2 -106 3 -230 2
-220 2 -227 25 -259 40 -56 65 -61 310 -61 l219 0 -1 -217 c0 -120 -5 -228
-10 -239 -21 -47 -30 -48 -514 -49 -492 0 -504 1 -524 52 -8 19 -12 171 -12
481 0 490 0 493 54 516 26 11 448 17 450 6z"/>
</g>
</svg>
